<?xml version="1.0" encoding="UTF-8" standalone="no"?>
<!-- Created with Inkscape (http://www.inkscape.org/) -->

<svg
   xmlns:dc="http://purl.org/dc/elements/1.1/"
   xmlns:cc="http://creativecommons.org/ns#"
   xmlns:rdf="http://www.w3.org/1999/02/22-rdf-syntax-ns#"
   xmlns:svg="http://www.w3.org/2000/svg"
   xmlns="http://www.w3.org/2000/svg"
   xmlns:sodipodi="http://sodipodi.sourceforge.net/DTD/sodipodi-0.dtd"
   xmlns:inkscape="http://www.inkscape.org/namespaces/inkscape"
   width="64.608604mm"
   height="12.7mm"
   viewBox="0 0 64.608605 12.699999"
   version="1.1"
   id="svg8"
   inkscape:version="0.92.4 (unknown)"
   sodipodi:docname="nombre.svg">
  <defs
     id="defs2" />
  <sodipodi:namedview
     id="base"
     pagecolor="#ffffff"
     bordercolor="#666666"
     borderopacity="1.0"
     inkscape:pageopacity="0.0"
     inkscape:pageshadow="2"
     inkscape:zoom="2"
     inkscape:cx="160.82303"
     inkscape:cy="-4.7944248"
     inkscape:document-units="mm"
     inkscape:current-layer="g34"
     showgrid="false"
     fit-margin-top="0"
     fit-margin-bottom="0"
     fit-margin-right="0"
     fit-margin-left="0"
     inkscape:window-width="1366"
     inkscape:window-height="732"
     inkscape:window-x="0"
     inkscape:window-y="36"
     inkscape:window-maximized="1" />
  <metadata
     id="metadata5">
    <rdf:RDF>
      <cc:Work
         rdf:about="">
        <dc:format>image/svg+xml</dc:format>
        <dc:type
           rdf:resource="http://purl.org/dc/dcmitype/StillImage" />
        <dc:title />
      </cc:Work>
    </rdf:RDF>
  </metadata>
  <g
     inkscape:label="Layer 1"
     inkscape:groupmode="layer"
     id="layer1"
     transform="translate(-6.2481985,-35.658195)">
    <g
       aria-label="SparkProjects"
       style="font-style:normal;font-weight:normal;font-size:10.58333302px;line-height:1.25;font-family:sans-serif;letter-spacing:0px;word-spacing:0px;fill:#000000;fill-opacity:1;stroke:none;stroke-width:0.26458332"
       id="text157">
      <g
         id="g34"
         transform="matrix(0.94142226,0,0,0.94142226,0.36600532,2.8327133)">
        <path
           id="path9"
           style="font-style:normal;font-variant:normal;font-weight:normal;font-stretch:normal;font-size:14.11111069px;font-family:HamburgerHeaven;-inkscape-font-specification:HamburgerHeaven;stroke-width:0.26458332;fill:#ffffff;fill-opacity:1"
           d="m 10.904865,34.867968 -0.08467,0.945444 H 9.9170872 q -0.7055555,0 -0.9877777,0.183445 -0.5362222,0.352778 -0.5362222,0.931333 0,0.550333 0.4233333,1.100667 l 1.7356664,2.257778 q 0.635,0.818444 0.635,1.904999 0,1.453445 -1.114778,2.328334 -0.945444,0.747889 -2.4271106,0.747889 H 6.2481985 l 0.098778,-0.945445 h 1.2135556 q 0.8325555,0 1.284111,-0.381 0.4515556,-0.395111 0.4515556,-1.001889 0,-0.635 -0.4656667,-1.27 L 6.8831984,38.974301 q -0.4092222,-0.564444 -0.4092222,-1.298222 0,-1.298222 1.0442222,-2.116667 0.8748889,-0.691444 2.1448888,-0.691444 z"
           inkscape:connector-curvature="0" />
        <path
           id="path11"
           style="font-style:normal;font-variant:normal;font-weight:normal;font-stretch:normal;font-size:14.11111069px;font-family:HamburgerHeaven;-inkscape-font-specification:HamburgerHeaven;stroke-width:0.26458332;fill:#ffffff;fill-opacity:1"
           d="m 17.571483,40.10319 -0.282223,3.160889 q -0.08467,0.931333 -0.931333,1.495778 -0.762,0.508 -1.721555,0.508 h -0.296334 q -0.352777,0 -0.592666,-0.05644 l -0.268111,3.146778 h -1.890889 l 0.818444,-9.313333 h -0.536222 l 0.07056,-0.945445 h 3.316111 q 0.973666,0 1.650999,0.508 0.747889,0.564445 0.663223,1.495778 z m -1.876778,-0.239889 q 0.07056,-0.818444 -0.635,-0.818444 h -0.762 l -0.381,4.219222 q -0.04233,0.493889 0.155222,0.776111 0.197556,0.282222 0.493889,0.282222 0.310445,0 0.550333,-0.268111 0.239889,-0.282222 0.282223,-0.790222 z"
           inkscape:connector-curvature="0" />
        <path
           id="path13"
           style="font-style:normal;font-variant:normal;font-weight:normal;font-stretch:normal;font-size:14.11111069px;font-family:HamburgerHeaven;-inkscape-font-specification:HamburgerHeaven;stroke-width:0.26458332;fill:#ffffff;fill-opacity:1"
           d="m 24.054877,44.322412 -0.08467,0.945445 h -0.663222 q -0.987778,0 -1.439333,-0.578556 -0.620889,0.578556 -1.453445,0.578556 h -0.296333 q -0.959556,0 -1.636889,-0.508 -0.747889,-0.564445 -0.663222,-1.495778 l 0.268111,-3.160889 q 0.08467,-0.917222 0.931333,-1.495778 0.762,-0.508 1.721556,-0.508 h 3.259666 l -0.479777,5.588 q -0.05645,0.606778 0.536222,0.635 z m -2.032,-5.277555 H 20.66821 q -0.606778,0 -0.663222,0.705555 l -0.310444,3.626556 q -0.08467,0.945444 0.804333,0.945444 0.437444,0 0.776111,-0.310444 0.338667,-0.310445 0.381,-0.747889 z"
           inkscape:connector-curvature="0" />
        <path
           id="path15"
           style="font-style:normal;font-variant:normal;font-weight:normal;font-stretch:normal;font-size:14.11111069px;font-family:HamburgerHeaven;-inkscape-font-specification:HamburgerHeaven;stroke-width:0.26458332;fill:#ffffff;fill-opacity:1"
           d="m 29.58522,38.099412 -0.183445,1.961445 h -1.030111 l 0.07056,-0.931334 q -0.649111,0.239889 -1.100667,0.874889 -0.451555,0.635 -0.508,1.340556 l -0.338666,3.922889 h -1.890889 l 0.550333,-6.223 h -0.536222 l 0.08467,-0.945445 h 2.412999 l -0.04233,0.606778 q 0.733778,-0.606778 1.876778,-0.606778 z"
           inkscape:connector-curvature="0" />
        <path
           id="path17"
           style="font-style:normal;font-variant:normal;font-weight:normal;font-stretch:normal;font-size:14.11111069px;font-family:HamburgerHeaven;-inkscape-font-specification:HamburgerHeaven;stroke-width:0.26458332;fill:#ffffff;fill-opacity:1"
           d="m 35.956605,38.099412 -2.582333,2.554111 q 0.804333,0.183445 1.241778,0.691445 0.493889,0.564444 0.437444,1.397 l -0.07055,0.973666 q -0.04233,0.578556 0.479778,0.606778 l -0.07056,0.945445 H 34.74305 q -0.733778,0 -1.171222,-0.282223 -0.536222,-0.352777 -0.493889,-1.030111 l 0.08467,-1.213555 q 0.02822,-0.465667 -0.141112,-0.818445 -0.211666,-0.409222 -0.663222,-0.409222 -0.296333,0 -0.635,0.225778 l -0.310444,3.527778 H 29.53605 l 0.818444,-9.454445 h -0.536222 l 0.08467,-0.945444 h 2.427111 l -0.479778,5.446889 2.229556,-2.215445 z"
           inkscape:connector-curvature="0" />
        <path
           id="path19"
           style="font-style:normal;font-variant:normal;font-weight:normal;font-stretch:normal;font-size:14.11111069px;font-family:HamburgerHeaven;-inkscape-font-specification:HamburgerHeaven;stroke-width:0.26458332;fill:#ffffff;fill-opacity:1"
           d="m 42.315537,37.05519 -0.141111,1.693333 q -0.07056,0.903112 -0.776111,1.538112 -0.691445,0.635 -1.594556,0.635 h -1.27 l -0.366889,4.346222 h -1.890889 l 0.832556,-9.454445 h -0.550333 l 0.08467,-0.945444 h 3.683 q 0.903111,0 1.481667,0.649111 0.578555,0.635 0.508,1.538111 z m -1.848556,-0.268111 q 0.04233,-0.395111 -0.225777,-0.677333 -0.254,-0.296334 -0.663223,-0.296334 h -0.592666 l -0.366889,4.176889 h 0.592666 q 0.395112,0 0.705556,-0.282222 0.310444,-0.296333 0.352778,-0.691444 z"
           inkscape:connector-curvature="0" />
        <path
           id="path21"
           style="font-style:normal;font-variant:normal;font-weight:normal;font-stretch:normal;font-size:14.11111069px;font-family:HamburgerHeaven;-inkscape-font-specification:HamburgerHeaven;stroke-width:0.26458332;fill:#ffffff;fill-opacity:1"
           d="m 47.596178,38.099412 -0.183445,1.961445 h -1.030111 l 0.07056,-0.931334 q -0.649112,0.239889 -1.100667,0.874889 -0.451556,0.635 -0.508,1.340556 l -0.338667,3.922889 h -1.890889 l 0.550334,-6.223 h -0.536222 l 0.08467,-0.945445 h 2.413 L 45.0844,38.70619 q 0.733778,-0.606778 1.876778,-0.606778 z"
           inkscape:connector-curvature="0" />
        <path
           id="path23"
           style="font-style:normal;font-variant:normal;font-weight:normal;font-stretch:normal;font-size:14.11111069px;font-family:HamburgerHeaven;-inkscape-font-specification:HamburgerHeaven;stroke-width:0.26458332;fill:#ffffff;fill-opacity:1"
           d="m 53.196964,40.10319 -0.282222,3.160889 q -0.07056,0.832555 -0.846667,1.425222 -0.776111,0.578556 -1.806222,0.578556 h -0.282222 q -0.973667,0 -1.651,-0.508 -0.747889,-0.564445 -0.663222,-1.495778 l 0.282222,-3.160889 q 0.08467,-0.931333 0.931333,-1.495778 0.747889,-0.508 1.721556,-0.508 h 0.296333 q 0.959555,0 1.636889,0.508 0.747889,0.578556 0.663222,1.495778 z m -1.890889,0 q 0.04233,-0.508 -0.155222,-0.776111 -0.183444,-0.268111 -0.493889,-0.268111 -0.296333,0 -0.536222,0.254 -0.254,0.296333 -0.296333,0.790222 l -0.268112,3.160889 q -0.04233,0.479778 0.155223,0.762 0.197555,0.282222 0.493889,0.296333 0.296333,0.01411 0.536222,-0.254 0.254,-0.282222 0.296333,-0.804333 z"
           inkscape:connector-curvature="0" />
        <path
           id="path25"
           style="font-style:normal;font-variant:normal;font-weight:normal;font-stretch:normal;font-size:14.11111069px;font-family:HamburgerHeaven;-inkscape-font-specification:HamburgerHeaven;stroke-width:0.26458332;fill:#ffffff;fill-opacity:1"
           d="m 56.333159,35.827524 q 0,0.395111 -0.282222,0.691444 -0.282222,0.282222 -0.691445,0.282222 -0.395111,0 -0.677333,-0.282222 -0.282222,-0.296333 -0.282222,-0.691444 0,-0.395112 0.282222,-0.677334 0.282222,-0.282222 0.677333,-0.282222 0.395111,0 0.677334,0.282222 0.296333,0.282222 0.296333,0.677334 z m -0.169333,2.271888 -0.719667,8.240889 q -0.07056,0.832556 -0.860778,1.425222 -0.776111,0.592667 -1.806222,0.592667 h -0.945444 l 0.08467,-0.945445 h 0.945445 q 0.592666,0 0.663222,-0.832555 l 0.663222,-7.535333 h -0.508 l 0.08467,-0.945445 z"
           inkscape:connector-curvature="0" />
        <path
           id="path27"
           style="font-style:normal;font-variant:normal;font-weight:normal;font-stretch:normal;font-size:14.11111069px;font-family:HamburgerHeaven;-inkscape-font-specification:HamburgerHeaven;stroke-width:0.26458332;fill:#ffffff;fill-opacity:1"
           d="m 61.260364,40.10319 h -0.945445 q 0.04233,-0.437444 -0.225777,-0.719667 -0.268112,-0.296333 -0.649112,-0.338666 -0.522111,-0.04233 -0.832555,0.352778 -0.296333,0.395111 -0.296333,0.917222 0,0.903111 0.663222,0.903111 h 1.749778 l -0.08467,0.931333 h -1.735667 q -0.381,0 -0.620889,0.366889 -0.225777,0.352778 -0.225777,0.818444 0,0.437445 0.225777,0.733778 0.239889,0.296334 0.691445,0.268111 0.381,-0.02822 0.691444,-0.310444 0.324556,-0.296333 0.366889,-0.762 h 0.945445 q -0.08467,0.959555 -0.818445,1.509889 -0.677333,0.493889 -1.651,0.493889 -0.931333,0 -1.622778,-0.564445 -0.733777,-0.578555 -0.677333,-1.439333 0.07056,-0.987778 0.973667,-1.580445 -0.776111,-0.733777 -0.705556,-1.580444 0.08467,-0.917222 0.931333,-1.481667 0.762,-0.522111 1.721556,-0.522111 0.987778,0 1.566333,0.493889 0.649111,0.536222 0.564445,1.509889 z"
           inkscape:connector-curvature="0" />
        <path
           id="path29"
           style="font-style:normal;font-variant:normal;font-weight:normal;font-stretch:normal;font-size:14.11111069px;font-family:HamburgerHeaven;-inkscape-font-specification:HamburgerHeaven;stroke-width:0.26458332;fill:#ffffff;fill-opacity:1"
           d="m 66.342348,38.099412 -0.08467,0.945445 h -2.003777 q -0.268111,0 -0.451556,0.268111 -0.183444,0.254 -0.211666,0.550333 l -0.324556,3.711222 q -0.01411,0.310445 0.239889,0.536223 0.254,0.211666 0.578555,0.211666 0.437445,0 0.776111,-0.310444 0.338667,-0.310445 0.381,-0.747889 h 0.945445 q -0.07056,0.818444 -0.719667,1.411111 -0.635,0.592667 -1.467555,0.592667 H 63.70357 q -0.917222,0 -1.566333,-0.451556 -0.733778,-0.508 -0.733778,-1.397 0,-0.08467 0,-0.155222 l 0.282223,-3.160889 q 0.08467,-0.917222 0.917222,-1.495778 0.762,-0.508 1.735666,-0.508 z"
           inkscape:connector-curvature="0" />
        <path
           id="path31"
           style="font-style:normal;font-variant:normal;font-weight:normal;font-stretch:normal;font-size:14.11111069px;font-family:HamburgerHeaven;-inkscape-font-specification:HamburgerHeaven;stroke-width:0.26458332;fill:#ffffff;fill-opacity:1"
           d="m 70.409655,38.099412 -0.08467,0.945445 h -0.804333 l -0.395112,4.473222 q -0.07055,0.719667 0.578556,0.790222 l -0.08467,0.959556 H 68.95621 q -0.818444,0 -1.284111,-0.437445 -0.508,-0.465666 -0.437444,-1.312333 l 0.395111,-4.473222 h -0.747889 l 0.08467,-0.945445 h 0.747888 l 0.141112,-1.665111 h 1.890888 l -0.155222,1.665111 z"
           inkscape:connector-curvature="0" />
        <path
           id="path33"
           style="font-style:normal;font-variant:normal;font-weight:normal;font-stretch:normal;font-size:14.11111069px;font-family:HamburgerHeaven;-inkscape-font-specification:HamburgerHeaven;stroke-width:0.26458332;fill:#ffffff;fill-opacity:1"
           d="m 74.876921,43.249968 q 0,-0.832556 -0.635,-1.622778 l -1.382889,-1.707444 q -0.183445,-0.225778 -0.183445,-0.451556 0,-0.423333 0.705556,-0.423333 h 1.114778 l 0.08467,-0.945445 h -1.552222 q -0.959555,0 -1.636889,0.465667 -0.776111,0.522111 -0.776111,1.453444 0,0.733778 0.550334,1.368778 l 1.128888,1.284111 q 0.310445,0.352778 0.310445,0.818445 0,0.832555 -0.874889,0.832555 h -1.509889 l -0.08467,0.945445 h 2.243667 q 1.016,0 1.707444,-0.493889 0.790223,-0.564445 0.790222,-1.524 z"
           inkscape:connector-curvature="0" />
      </g>
    </g>
  </g>
</svg>
