<?xml version="1.0" encoding="UTF-8" standalone="no"?>
<!-- Created with Inkscape (http://www.inkscape.org/) -->

<svg
   xmlns:dc="http://purl.org/dc/elements/1.1/"
   xmlns:cc="http://creativecommons.org/ns#"
   xmlns:rdf="http://www.w3.org/1999/02/22-rdf-syntax-ns#"
   xmlns:svg="http://www.w3.org/2000/svg"
   xmlns="http://www.w3.org/2000/svg"
   xmlns:sodipodi="http://sodipodi.sourceforge.net/DTD/sodipodi-0.dtd"
   xmlns:inkscape="http://www.inkscape.org/namespaces/inkscape"
   width="53.001827mm"
   height="10.339916mm"
   viewBox="0 0 53.001827 10.339916"
   version="1.1"
   id="svg36"
   inkscape:version="0.92.3 (2405546, 2018-03-11)"
   sodipodi:docname="nombre.svg">
  <defs
     id="defs30" />
  <sodipodi:namedview
     id="base"
     pagecolor="#ffffff"
     bordercolor="#666666"
     borderopacity="1.0"
     inkscape:pageopacity="0.0"
     inkscape:pageshadow="2"
     inkscape:zoom="1.979899"
     inkscape:cx="99.678749"
     inkscape:cy="92.065631"
     inkscape:document-units="mm"
     inkscape:current-layer="text40"
     showgrid="false"
     fit-margin-top="0"
     fit-margin-left="0"
     fit-margin-right="0"
     fit-margin-bottom="0"
     inkscape:window-width="1366"
     inkscape:window-height="732"
     inkscape:window-x="0"
     inkscape:window-y="36"
     inkscape:window-maximized="1" />
  <metadata
     id="metadata33">
    <rdf:RDF>
      <cc:Work
         rdf:about="">
        <dc:format>image/svg+xml</dc:format>
        <dc:type
           rdf:resource="http://purl.org/dc/dcmitype/StillImage" />
        <dc:title></dc:title>
      </cc:Work>
    </rdf:RDF>
  </metadata>
  <g
     inkscape:label="Layer 1"
     inkscape:groupmode="layer"
     id="layer1"
     transform="translate(-25.052262,-165.22389)">
    <g
       aria-label="AlertaFuegoGT"
       style="font-style:normal;font-weight:normal;font-size:10.58333302px;line-height:1.25;font-family:sans-serif;letter-spacing:0px;word-spacing:0px;fill:#000000;fill-opacity:1;stroke:none;stroke-width:0.26458332"
       id="text40">
      <path
         d="m 29.698345,166.8643 -0.4445,5.05884 q -0.03175,0.381 0.306916,0.39158 l -0.0635,0.70908 h -0.560916 q -0.529167,0 -0.8255,-0.26458 -0.328083,-0.29633 -0.275167,-0.83608 l 0.15875,-1.79917 h -1.280583 l -0.254,2.89983 h -1.407583 l 0.53975,-6.1595 q 0.07408,-0.84666 0.814916,-1.28058 0.592667,-0.35983 1.375834,-0.35983 0.783166,0 1.322916,0.35983 0.66675,0.4445 0.592667,1.28058 z m -1.397,-0.20108 q 0.03175,-0.30692 -0.127,-0.51858 -0.15875,-0.21167 -0.455083,-0.21167 -0.28575,0 -0.47625,0.21167 -0.1905,0.21166 -0.22225,0.51858 l -0.243417,2.75167 h 1.280583 z"
         style="font-style:normal;font-variant:normal;font-weight:normal;font-stretch:normal;font-family:HamburgerHeaven;-inkscape-font-specification:HamburgerHeaven;stroke-width:0.26458332"
         id="path42" />
      <path
         d="m 32.209406,165.22389 -0.560917,6.477 q -0.05292,0.5715 0.433917,0.61383 l -0.05292,0.70908 h -0.232833 q -0.772583,0 -1.195917,-0.34925 -0.423333,-0.35983 -0.370416,-0.97366 l 0.508,-5.76792 h -0.381 l 0.0635,-0.70908 z"
         style="font-style:normal;font-variant:normal;font-weight:normal;font-stretch:normal;font-family:HamburgerHeaven;-inkscape-font-specification:HamburgerHeaven;stroke-width:0.26458332"
         id="path44" />
      <path
         d="m 36.233057,169.1503 h -0.709084 q 0.03175,-0.32808 -0.169333,-0.53975 -0.201083,-0.22225 -0.486833,-0.254 -0.391584,-0.0317 -0.624417,0.26459 -0.22225,0.29633 -0.22225,0.68791 0,0.67734 0.497417,0.67734 h 1.312333 l -0.0635,0.6985 h -1.30175 q -0.28575,0 -0.465666,0.27516 -0.169334,0.26459 -0.169334,0.61384 0,0.32808 0.169334,0.55033 0.179916,0.22225 0.518583,0.20108 0.28575,-0.0212 0.518583,-0.23283 0.243417,-0.22225 0.275167,-0.5715 h 0.709083 q -0.0635,0.71967 -0.613833,1.13242 -0.508,0.37041 -1.23825,0.37041 -0.6985,0 -1.217083,-0.42333 -0.550334,-0.43392 -0.508,-1.0795 0.05292,-0.74083 0.73025,-1.18533 -0.582084,-0.55034 -0.529167,-1.18534 0.0635,-0.68791 0.6985,-1.11125 0.5715,-0.39158 1.291166,-0.39158 0.740834,0 1.17475,0.37042 0.486834,0.40216 0.423334,1.13241 z"
         style="font-style:normal;font-variant:normal;font-weight:normal;font-stretch:normal;font-family:HamburgerHeaven;-inkscape-font-specification:HamburgerHeaven;stroke-width:0.26458332"
         id="path46" />
      <path
         d="m 40.330295,167.64747 -0.137583,1.47108 h -0.772584 l 0.05292,-0.6985 q -0.486833,0.17992 -0.8255,0.65617 -0.338667,0.47625 -0.381,1.00542 l -0.254,2.94216 h -1.418167 l 0.41275,-4.66725 h -0.402166 l 0.0635,-0.70908 h 1.80975 l -0.03175,0.45508 q 0.550333,-0.45508 1.407583,-0.45508 z"
         style="font-style:normal;font-variant:normal;font-weight:normal;font-stretch:normal;font-family:HamburgerHeaven;-inkscape-font-specification:HamburgerHeaven;stroke-width:0.26458332"
         id="path48" />
      <path
         d="m 43.239719,167.64747 -0.0635,0.70908 h -0.60325 l -0.296333,3.35492 q -0.05292,0.53975 0.433917,0.59267 l -0.0635,0.71966 h -0.497417 q -0.613833,0 -0.963083,-0.32808 -0.381,-0.34925 -0.328084,-0.98425 l 0.296334,-3.35492 h -0.560917 l 0.0635,-0.70908 h 0.560917 l 0.105833,-1.24883 h 1.418167 l -0.116417,1.24883 z"
         style="font-style:normal;font-variant:normal;font-weight:normal;font-stretch:normal;font-family:HamburgerHeaven;-inkscape-font-specification:HamburgerHeaven;stroke-width:0.26458332"
         id="path50" />
      <path
         d="m 47.654706,172.31472 -0.0635,0.70908 h -0.497417 q -0.740833,0 -1.0795,-0.43391 -0.465667,0.43391 -1.090083,0.43391 h -0.22225 q -0.719667,0 -1.227667,-0.381 -0.560917,-0.42333 -0.497417,-1.12183 l 0.201084,-2.37067 q 0.0635,-0.68791 0.6985,-1.12183 0.5715,-0.381 1.291166,-0.381 h 2.44475 l -0.359833,4.191 q -0.04233,0.45508 0.402167,0.47625 z m -1.524,-3.95817 h -1.016 q -0.455084,0 -0.497417,0.52917 l -0.232833,2.71992 q -0.0635,0.70908 0.60325,0.70908 0.328083,0 0.582083,-0.23283 0.254,-0.23284 0.28575,-0.56092 z"
         style="font-style:normal;font-variant:normal;font-weight:normal;font-stretch:normal;font-family:HamburgerHeaven;-inkscape-font-specification:HamburgerHeaven;stroke-width:0.26458332"
         id="path52" />
      <path
         d="m 52.295414,165.22389 -0.05292,0.70908 h -2.233083 l -0.254,2.83633 h 1.545167 l -0.0635,0.70909 h -1.545167 l -0.306917,3.54541 h -1.418166 l 0.687916,-7.79991 z"
         style="font-style:normal;font-variant:normal;font-weight:normal;font-stretch:normal;font-family:HamburgerHeaven;-inkscape-font-specification:HamburgerHeaven;stroke-width:0.26458332"
         id="path54" />
      <path
         d="m 56.611926,172.31472 -0.0635,0.70908 h -2.529417 q -0.79375,0 -1.248833,-0.40216 -0.497417,-0.43392 -0.423334,-1.22767 l 0.264584,-3.03742 h -0.370417 l 0.0635,-0.70908 h 1.778 l -0.328083,3.92642 q -0.02117,0.29633 0.105833,0.51858 0.137583,0.22225 0.402167,0.22225 h 0.508 l 0.41275,-4.66725 h 1.418166 l -0.402166,4.66725 z"
         style="font-style:normal;font-variant:normal;font-weight:normal;font-stretch:normal;font-family:HamburgerHeaven;-inkscape-font-specification:HamburgerHeaven;stroke-width:0.26458332"
         id="path56" />
      <path
         d="m 60.769027,169.1503 h -0.709084 q 0.03175,-0.32808 -0.169333,-0.53975 -0.201083,-0.22225 -0.486833,-0.254 -0.391584,-0.0317 -0.624417,0.26459 -0.22225,0.29633 -0.22225,0.68791 0,0.67734 0.497417,0.67734 h 1.312333 l -0.0635,0.6985 h -1.30175 q -0.28575,0 -0.465667,0.27516 -0.169333,0.26459 -0.169333,0.61384 0,0.32808 0.169333,0.55033 0.179917,0.22225 0.518584,0.20108 0.28575,-0.0212 0.518583,-0.23283 0.243417,-0.22225 0.275167,-0.5715 h 0.709083 q -0.0635,0.71967 -0.613833,1.13242 -0.508,0.37041 -1.23825,0.37041 -0.6985,0 -1.217084,-0.42333 -0.550333,-0.43392 -0.508,-1.0795 0.05292,-0.74083 0.73025,-1.18533 -0.582083,-0.55034 -0.529166,-1.18534 0.0635,-0.68791 0.6985,-1.11125 0.5715,-0.39158 1.291166,-0.39158 0.740834,0 1.17475,0.37042 0.486833,0.40216 0.423334,1.13241 z"
         style="font-style:normal;font-variant:normal;font-weight:normal;font-stretch:normal;font-family:HamburgerHeaven;-inkscape-font-specification:HamburgerHeaven;stroke-width:0.26458332"
         id="path58" />
      <path
         d="m 65.279013,167.64747 -0.0635,0.70908 h -0.592667 q 0.116417,0.22225 0.08467,0.52917 l -0.15875,1.82033 q -0.05292,0.59267 -0.613833,0.94192 0.846666,0.5715 0.751416,1.55575 h 0.455084 l -0.0635,0.70908 h -0.455084 l -0.03175,0.40217 q -0.04233,0.58208 -0.60325,0.94192 -0.486833,0.30691 -1.100666,0.30691 h -0.6985 q -0.624417,0 -1.04775,-0.30691 -0.497417,-0.34925 -0.4445,-0.94192 l 0.09525,-1.11125 h 2.487083 q 0.03175,-0.39158 -0.1905,-0.79375 -0.243417,-0.45508 -0.613833,-0.45508 -0.60325,0 -1.026584,-0.3175 -0.486833,-0.34925 -0.433916,-0.93134 l 0.15875,-1.82033 q 0.05292,-0.58208 0.60325,-0.93133 0.486833,-0.30692 1.100666,-0.30692 z m -1.979083,1.23825 q 0.02117,-0.26458 -0.07408,-0.40217 -0.09525,-0.13758 -0.232833,-0.13758 -0.359833,0.0106 -0.402167,0.53975 l -0.15875,1.82033 q -0.04233,0.53975 0.306917,0.55034 0.338667,0.0106 0.391583,-0.55034 z m -0.08467,5.02708 h -1.068917 l -0.03175,0.40217 q -0.02117,0.28575 0.116417,0.4445 0.148167,0.16933 0.359833,0.16933 0.211667,0 0.381,-0.16933 0.169334,-0.15875 0.201084,-0.4445 z"
         style="font-style:normal;font-variant:normal;font-weight:normal;font-stretch:normal;font-family:HamburgerHeaven;-inkscape-font-specification:HamburgerHeaven;stroke-width:0.26458332"
         id="path60" />
      <path
         d="m 69.149536,169.1503 -0.211666,2.37067 q -0.05292,0.62442 -0.635,1.06892 -0.582084,0.43391 -1.354667,0.43391 h -0.211667 q -0.73025,0 -1.23825,-0.381 -0.560916,-0.42333 -0.497416,-1.12183 l 0.211666,-2.37067 q 0.0635,-0.6985 0.6985,-1.12183 0.560917,-0.381 1.291167,-0.381 h 0.22225 q 0.719667,0 1.227667,0.381 0.560916,0.43392 0.497416,1.12183 z m -1.418166,0 q 0.03175,-0.381 -0.116417,-0.58208 -0.137583,-0.20108 -0.370417,-0.20108 -0.22225,0 -0.402166,0.1905 -0.1905,0.22225 -0.22225,0.59266 l -0.201084,2.37067 q -0.03175,0.35983 0.116417,0.5715 0.148167,0.21167 0.370417,0.22225 0.22225,0.0106 0.402166,-0.1905 0.1905,-0.21167 0.22225,-0.60325 z"
         style="font-style:normal;font-variant:normal;font-weight:normal;font-stretch:normal;font-family:HamburgerHeaven;-inkscape-font-specification:HamburgerHeaven;stroke-width:0.26458332"
         id="path62" />
      <path
         d="m 74.263933,165.22389 -0.0635,0.70908 H 71.6816 q -0.1905,0 -0.338667,0.17992 -0.137583,0.16933 -0.15875,0.4445 l -0.433916,4.96358 q -0.04233,0.42333 0.179916,0.64558 0.201084,0.17992 0.518584,0.15875 0.3175,-0.0212 0.560916,-0.24341 0.254,-0.22225 0.28575,-0.56092 l 0.243417,-2.75167 h 1.418167 l -0.4445,5.05884 q -0.05292,0.62441 -0.645584,1.06891 -0.582083,0.4445 -1.344083,0.4445 H 70.0941 l 0.0635,-0.70908 h 1.153583 q 0.306917,0 0.529167,-0.23283 0.22225,-0.23284 0.254,-0.5715 l 0.09525,-1.03717 q -0.381,0.23283 -0.8255,0.23283 -0.486833,0 -0.677333,-0.0317 -0.60325,-0.0952 -0.98425,-0.46566 -0.423333,-0.41275 -0.370417,-1.00542 l 0.41275,-4.78367 q 0.0635,-0.70908 0.613833,-1.13241 0.497417,-0.381 1.2065,-0.381 z"
         style="font-style:normal;font-variant:normal;font-weight:normal;font-stretch:normal;font-family:HamburgerHeaven;-inkscape-font-specification:HamburgerHeaven;stroke-width:0.26458332"
         id="path64" />
      <path
         d="m 78.054087,165.23447 -0.0635,0.6985 h -1.016 l -0.613833,7.09083 h -1.418167 l 0.624417,-7.09083 h -1.016 l 0.0635,-0.6985 z"
         style="font-style:normal;font-variant:normal;font-weight:normal;font-stretch:normal;font-family:HamburgerHeaven;-inkscape-font-specification:HamburgerHeaven;stroke-width:0.26458332"
         id="path66" />
    </g>
  </g>
</svg>
