<?xml version="1.0" standalone="no"?>
<!DOCTYPE svg PUBLIC "-//W3C//DTD SVG 20010904//EN"
 "http://www.w3.org/TR/2001/REC-SVG-20010904/DTD/svg10.dtd">
<svg version="1.0" xmlns="http://www.w3.org/2000/svg"
 width="280.000000pt" height="280.000000pt" viewBox="0 0 280.000000 280.000000"
 preserveAspectRatio="xMidYMid meet">
<metadata>
Created by potrace 1.11, written by Peter Selinger 2001-2013
</metadata>
<g transform="translate(0.000000,280.000000) scale(0.100000,-0.100000)"
fill="#000000" stroke="none">
<path d="M1310 2765 c0 -7 30 -13 34 -7 3 4 -4 9 -15 9 -10 1 -19 0 -19 -2z"/>
<path d="M1375 2760 c-2 -3 5 -7 16 -7 10 -1 19 2 19 6 0 9 -29 10 -35 1z"/>
<path d="M1297 2749 c7 -7 15 -10 18 -7 3 3 -2 9 -12 12 -14 6 -15 5 -6 -5z"/>
<path d="M1230 2746 c0 -2 7 -7 16 -10 8 -3 12 -2 9 4 -6 10 -25 14 -25 6z"/>
<path d="M1172 2714 c-12 -9 -12 -13 -2 -19 9 -5 11 -4 6 3 -4 7 -4 12 1 13
41 4 72 19 33 16 -12 -1 -29 -6 -38 -13z"/>
<path d="M1115 2680 c-3 -5 -1 -10 4 -10 6 0 11 5 11 10 0 6 -2 10 -4 10 -3 0
-8 -4 -11 -10z"/>
<path d="M1633 2675 c0 -8 4 -12 9 -9 4 3 8 9 8 15 0 5 -4 9 -8 9 -5 0 -9 -7
-9 -15z"/>
<path d="M1655 2660 c-3 -5 -1 -10 4 -10 6 0 11 5 11 10 0 6 -2 10 -4 10 -3 0
-8 -4 -11 -10z"/>
<path d="M1090 2650 c-8 -5 -12 -12 -9 -15 4 -3 12 1 19 10 14 17 11 19 -10 5z"/>
<path d="M1680 2641 c0 -5 7 -12 16 -15 14 -5 15 -4 4 9 -14 17 -20 19 -20 6z"/>
<path d="M1055 2620 c3 -5 8 -10 11 -10 2 0 4 5 4 10 0 6 -5 10 -11 10 -5 0
-7 -4 -4 -10z"/>
<path d="M1710 2599 c0 -5 5 -7 10 -4 6 3 10 8 10 11 0 2 -4 4 -10 4 -5 0 -10
-5 -10 -11z"/>
<path d="M1735 2591 c-3 -6 5 -15 17 -21 21 -10 21 -10 6 3 -10 8 -15 17 -11
20 3 4 4 7 0 7 -3 0 -8 -4 -12 -9z"/>
<path d="M1002 2569 c-14 -22 -7 -25 14 -5 8 8 11 17 6 20 -4 2 -13 -4 -20
-15z"/>
<path d="M1770 2542 c0 -12 22 -32 35 -32 5 0 2 5 -8 11 -9 6 -15 14 -12 20 4
5 1 9 -4 9 -6 0 -11 -4 -11 -8z"/>
<path d="M915 2450 c-3 -6 1 -7 9 -4 18 7 21 14 7 14 -6 0 -13 -4 -16 -10z"/>
<path d="M1836 2437 c3 -10 9 -15 12 -12 3 3 0 11 -7 18 -10 9 -11 8 -5 -6z"/>
<path d="M890 2426 c0 -2 7 -7 16 -10 8 -3 12 -2 9 4 -6 10 -25 14 -25 6z"/>
<path d="M885 2400 c-3 -5 -1 -10 4 -10 6 0 11 5 11 10 0 6 -2 10 -4 10 -3 0
-8 -4 -11 -10z"/>
<path d="M1894 2360 c0 -13 4 -16 10 -10 7 7 7 13 0 20 -6 6 -10 3 -10 -10z"/>
<path d="M864 2348 c0 -10 1 -18 3 -18 1 0 7 8 12 18 7 13 6 19 -2 19 -7 0
-13 -9 -13 -19z"/>
<path d="M840 2325 c0 -5 5 -17 10 -25 5 -8 10 -10 10 -5 0 6 -5 17 -10 25 -5
8 -10 11 -10 5z"/>
<path d="M1910 2321 c8 -6 12 -11 7 -11 -4 0 -1 -10 8 -23 8 -13 12 -27 8 -32
-5 -4 -2 -5 5 -1 9 6 10 12 0 29 -7 12 -12 26 -13 31 0 5 -7 11 -15 13 -13 4
-13 3 0 -6z"/>
<path d="M817 2271 c-4 -17 -3 -21 5 -13 5 5 8 16 6 23 -3 8 -7 3 -11 -10z"/>
<path d="M1950 2241 c0 -6 4 -13 10 -16 6 -3 7 1 4 9 -7 18 -14 21 -14 7z"/>
<path d="M795 2200 c-3 -5 -1 -10 4 -10 6 0 11 5 11 10 0 6 -2 10 -4 10 -3 0
-8 -4 -11 -10z"/>
<path d="M1956 2187 c3 -10 9 -15 12 -12 3 3 0 11 -7 18 -10 9 -11 8 -5 -6z"/>
<path d="M793 2173 c4 -3 1 -13 -6 -22 -11 -14 -10 -14 5 -2 16 12 16 31 1 31
-4 0 -3 -3 0 -7z"/>
<path d="M1975 2161 c-3 -5 -2 -12 3 -15 5 -3 9 1 9 9 0 17 -3 19 -12 6z"/>
<path d="M1126 2139 c4 -8 0 -9 -15 -4 -13 4 -21 2 -21 -5 0 -6 -4 -9 -9 -6
-4 3 -21 -6 -37 -19 -16 -14 -32 -25 -36 -25 -5 0 -8 -6 -8 -14 0 -8 -8 -17
-17 -20 -15 -6 -15 -8 -3 -16 13 -8 12 -10 -3 -10 -10 0 -15 -4 -12 -10 3 -5
2 -10 -3 -10 -9 0 -27 -47 -24 -62 1 -5 -3 -8 -9 -8 -6 0 -9 -9 -6 -20 3 -11
0 -20 -6 -20 -6 0 -7 -3 -4 -6 3 -4 1 -16 -5 -27 -6 -11 -13 -85 -15 -164 -4
-114 -2 -143 9 -143 10 0 9 -3 -2 -10 -13 -9 -13 -10 0 -10 13 0 13 -1 0 -10
-13 -8 -12 -10 3 -10 12 0 17 8 17 31 0 21 -4 28 -12 23 -10 -6 -10 -4 0 8 10
13 10 17 0 21 -10 4 -10 7 1 15 11 8 11 10 0 15 -8 3 -9 6 -3 6 8 1 9 12 4 36
-5 23 -4 36 4 39 8 3 7 5 -1 5 -9 1 -10 8 -4 24 5 12 8 39 6 59 -1 21 2 35 6
33 4 -3 6 6 4 20 -1 14 1 25 5 25 4 0 11 17 15 38 8 45 55 129 91 166 42 41
174 69 201 42 11 -11 24 -6 18 7 -4 6 0 4 8 -5 8 -10 17 -15 20 -11 4 3 7 1 7
-6 0 -7 5 -9 10 -6 6 3 10 2 10 -4 0 -6 12 -17 28 -25 15 -8 40 -27 57 -43 16
-15 33 -27 37 -26 5 2 7 -1 5 -5 -3 -13 50 -72 58 -64 5 4 5 1 1 -5 -4 -7 -16
-13 -27 -13 -10 0 -27 -8 -37 -17 -10 -10 -25 -19 -33 -21 -27 -7 -79 -44 -73
-53 3 -5 0 -9 -5 -9 -16 0 -51 -32 -45 -42 3 -4 -2 -5 -9 -2 -16 6 -32 68 -22
85 14 21 -5 59 -28 59 -44 0 -60 -36 -29 -66 9 -10 22 -39 28 -65 10 -44 9
-52 -14 -91 -14 -24 -28 -45 -32 -48 -3 -3 -25 -43 -49 -90 -50 -98 -61 -113
-61 -83 0 42 -51 57 -74 21 -14 -23 2 -50 35 -58 30 -8 30 -36 0 -138 -12 -40
-19 -77 -16 -82 3 -4 -5 -6 -17 -2 -13 3 -17 7 -10 10 9 3 10 8 3 15 -10 13
-11 17 -11 46 0 11 -7 27 -16 35 -8 9 -11 16 -5 16 7 0 7 8 1 24 -5 13 -6 27
-3 30 4 3 2 6 -4 6 -5 0 -10 16 -11 36 -1 20 -7 43 -14 52 -10 12 -10 14 0 8
6 -4 12 -2 12 3 0 6 -7 11 -16 11 -13 0 -15 -7 -9 -40 9 -55 11 -63 18 -80 5
-12 10 -41 17 -98 0 -2 5 0 10 3 6 3 10 1 10 -4 0 -6 -5 -11 -10 -11 -7 0 -6
-8 2 -22 13 -25 15 -30 17 -54 0 -8 5 -13 9 -10 9 6 9 -101 -1 -110 -4 -4 -2
-13 4 -20 7 -8 7 -14 -1 -19 -5 -3 -10 -15 -10 -26 0 -14 -7 -19 -30 -19 -20
0 -30 -5 -30 -15 0 -10 10 -15 30 -15 28 0 30 -2 30 -38 0 -21 3 -42 7 -46 15
-14 11 -35 -5 -29 -13 3 -12 1 3 -12 20 -17 20 -17 -2 -12 -30 7 -29 -1 1 -13
18 -7 22 -14 19 -34 -4 -17 -1 -26 7 -26 7 0 10 -7 6 -15 -6 -17 3 -47 13 -41
3 2 7 -9 8 -25 2 -32 26 -63 38 -51 5 4 5 1 1 -6 -6 -9 -11 -10 -20 -3 -7 6
-16 8 -19 4 -4 -3 -7 1 -7 10 0 9 -5 17 -11 17 -5 0 -7 5 -4 10 3 6 1 10 -5
10 -6 0 -9 4 -6 8 3 5 -3 18 -14 30 -11 11 -15 22 -10 24 5 2 -2 8 -15 14 -23
11 -24 11 -8 -12 8 -13 12 -24 8 -24 -5 0 0 -9 10 -20 10 -11 15 -20 11 -20
-4 0 5 -11 19 -25 14 -14 25 -30 25 -35 0 -5 7 -7 15 -4 8 4 15 1 15 -6 0 -6
4 -9 9 -5 5 3 12 -4 16 -14 4 -14 11 -18 23 -14 15 6 16 5 2 -12 -9 -11 -10
-16 -2 -11 6 4 12 2 12 -3 0 -6 5 -11 11 -11 5 0 8 4 5 8 -3 5 1 9 9 9 8 0 12
-4 10 -8 -3 -3 3 -13 12 -20 15 -12 16 -12 10 4 -4 11 -3 16 3 12 6 -3 10 -2
10 4 0 6 -11 13 -25 17 -23 6 -30 15 -26 37 1 5 -3 6 -8 3 -13 -8 -72 64 -78
96 -3 16 -9 28 -13 28 -3 0 -7 6 -8 13 0 6 -7 48 -14 92 -8 44 -13 94 -13 110
0 29 2 30 48 31 26 1 45 -1 42 -4 -7 -8 37 -82 46 -76 5 3 6 -1 3 -9 -3 -9 3
-16 15 -20 12 -3 21 -1 21 4 0 5 -4 9 -10 9 -5 0 -10 6 -10 14 0 8 -3 16 -7
18 -5 2 -16 18 -25 36 l-17 32 295 0 295 0 -12 -22 c-7 -13 -18 -26 -25 -30
-6 -5 -10 -17 -7 -28 4 -16 2 -19 -13 -14 -17 6 -17 5 1 -10 11 -10 15 -15 8
-11 -8 3 -15 -4 -19 -20 -3 -14 -10 -25 -16 -25 -5 0 -7 -4 -3 -9 3 -6 -3 -14
-12 -20 -10 -6 -15 -11 -10 -11 4 0 -1 -8 -10 -18 -47 -49 -61 -71 -50 -76 7
-2 2 -5 -10 -5 -14 -1 -28 -12 -37 -28 -8 -16 -15 -24 -16 -20 0 4 -10 3 -21
-4 -13 -7 -19 -7 -15 -1 7 12 -29 26 -44 17 -6 -3 -7 1 -4 9 4 10 1 16 -8 16
-8 0 -24 9 -36 20 -12 11 -27 20 -33 20 -7 0 -9 3 -6 7 8 7 -34 39 -46 35 -5
-1 -6 2 -3 7 4 5 0 15 -7 23 -7 7 -23 26 -35 42 -21 27 -52 44 -52 28 0 -4 18
-26 40 -50 22 -23 40 -45 40 -48 0 -12 31 -35 40 -29 6 3 7 -1 4 -9 -3 -9 -1
-16 4 -16 6 0 22 -11 35 -24 28 -28 93 -64 82 -45 -5 8 -4 10 3 5 20 -12 14
-29 -20 -61 -18 -17 -28 -24 -23 -16 6 11 4 13 -9 8 -10 -4 -21 -7 -24 -7 -4
0 0 -4 8 -10 10 -6 4 -8 -20 -7 -19 1 -46 -2 -59 -7 -14 -5 -21 -4 -18 1 3 5
-5 9 -19 8 -27 0 -34 -19 -7 -21 10 -1 23 -3 28 -4 6 -1 12 -1 15 0 3 1 20 3
39 5 41 4 86 22 125 48 22 16 45 20 102 20 41 0 74 4 74 9 0 5 4 7 9 4 5 -3
14 1 21 9 7 8 16 13 20 10 10 -6 57 41 85 85 31 49 65 144 69 193 2 23 5 43 6
45 1 1 3 8 4 15 0 6 18 13 39 15 53 5 51 32 -2 32 -22 0 -43 5 -47 12 -4 6 -3
8 3 5 6 -4 10 12 12 40 1 50 8 66 22 58 5 -4 6 2 2 11 -4 11 -8 13 -11 6 -2
-7 -8 -12 -13 -12 -6 0 -7 4 -4 10 3 5 0 10 -7 10 -10 0 -10 2 -1 8 8 5 10 24
4 64 -4 31 -4 55 -1 53 4 -3 8 5 8 18 1 26 10 102 12 102 1 0 3 17 4 38 3 41
29 77 56 77 40 0 52 52 18 74 -23 14 -52 -2 -56 -32 -2 -11 -10 -23 -18 -26
-12 -4 -12 -2 -4 14 6 11 7 20 2 20 -5 0 -7 16 -6 35 2 20 0 34 -5 31 -4 -3
-5 8 -3 25 3 21 0 29 -11 29 -11 0 -13 -8 -7 -40 4 -22 5 -40 1 -40 -3 0 1 -5
9 -10 11 -7 11 -10 2 -10 -8 0 -10 -5 -6 -12 12 -19 5 -67 -13 -94 -18 -28
-35 -27 -39 2 -4 39 -45 154 -55 154 -6 0 -7 5 -3 11 4 7 -4 20 -17 31 -13 11
-18 17 -11 13 15 -8 15 -3 -1 29 -8 14 -16 24 -19 21 -8 -8 1 59 14 102 l13
41 40 -35 c22 -20 34 -33 28 -29 -18 10 -16 0 4 -20 10 -9 18 -22 19 -28 0 -6
2 -17 2 -24 1 -7 6 -11 11 -8 4 3 6 -6 3 -19 -3 -18 0 -25 12 -25 9 0 16 5 16
11 0 5 -4 7 -10 4 -6 -3 -7 1 -4 10 9 21 -42 120 -80 158 l-32 32 19 75 c10
41 27 83 38 93 25 23 24 42 -3 61 -34 24 -62 4 -55 -40 3 -19 2 -47 -3 -62 -5
-15 -14 -45 -19 -67 -8 -30 -16 -41 -30 -41 -11 0 -17 5 -14 10 4 5 -1 7 -9 3
-9 -3 -19 -3 -22 1 -11 10 -45 9 -39 -2 4 -6 -34 30 -83 79 -58 58 -109 99
-144 116 -71 35 -100 43 -100 30 0 -6 -5 -11 -11 -11 -5 0 -7 5 -4 10 3 6 -5
10 -19 10 -13 0 -27 -6 -29 -12 -4 -10 -6 -10 -6 0 -1 6 -6 12 -12 12 -5 0 -7
-5 -3 -11z m364 -185 c0 -2 -9 0 -20 6 -11 6 -20 13 -20 16 0 2 9 0 20 -6 11
-6 20 -13 20 -16z m-4 -64 c21 8 26 6 36 -16 6 -14 17 -23 24 -20 8 3 16 0 20
-6 4 -7 3 -8 -4 -4 -7 4 -12 1 -12 -8 0 -19 11 -20 30 -3 12 10 12 9 1 -5 -14
-18 -8 -53 8 -44 11 7 4 -55 -13 -107 -8 -23 -47 -159 -87 -302 l-74 -260 -3
175 c-2 117 1 187 9 212 10 30 9 41 -1 53 -16 19 -44 19 -61 -1 -11 -13 -10
-21 4 -47 15 -27 17 -56 15 -177 l-3 -145 -23 115 c-28 137 -28 134 -40 185
-5 22 -7 51 -6 63 2 12 0 22 -4 22 -5 0 -15 33 -22 73 -7 39 -14 80 -16 90 -1
10 0 16 4 13 10 -6 32 21 24 29 -4 4 0 5 8 3 8 -1 14 3 12 10 -1 6 4 11 10 10
7 -2 12 5 12 15 -2 13 1 15 11 7 9 -7 16 -6 25 5 11 13 10 14 -6 9 -10 -4 -16
-4 -12 0 3 4 12 8 20 10 31 5 78 32 79 46 0 9 2 11 5 3 4 -8 13 -9 30 -3z
m118 0 c14 -5 24 -15 22 -22 -3 -7 -7 -26 -10 -41 -4 -15 -11 -25 -17 -22 -5
4 -8 12 -7 18 1 7 -10 24 -25 39 -15 15 -27 22 -27 16 0 -6 -3 -9 -6 -5 -10
10 6 27 26 27 10 0 30 -4 44 -10z m-378 -199 c-4 -5 -2 -11 2 -13 5 -1 21 -61
36 -133 15 -71 43 -204 62 -294 18 -91 32 -166 30 -168 -7 -7 -197 247 -192
255 2 4 0 14 -6 22 -8 12 -9 11 -4 -5 4 -13 -7 -5 -28 19 -25 29 -34 48 -33
73 1 20 4 28 9 20 7 -11 10 -1 8 28 -1 3 6 13 15 21 8 9 13 20 10 25 -4 5 -1
9 5 9 7 0 9 7 6 16 -3 8 -2 13 3 10 11 -7 42 39 44 64 1 10 5 18 10 17 5 -1
12 4 15 12 3 10 0 11 -9 5 -12 -7 -12 -5 0 9 14 18 26 23 17 8z m431 -54 c12
-29 27 -51 33 -49 6 1 9 -2 5 -8 -4 -6 -3 -24 0 -42 6 -23 9 -27 17 -17 7 10
8 8 3 -8 -3 -13 -3 -28 2 -35 4 -7 8 -16 9 -20 1 -5 2 -9 4 -10 10 -13 3 -52
-14 -71 -75 -87 -226 -257 -262 -296 -10 -11 -11 -8 -5 20 8 34 158 561 167
588 6 19 15 9 41 -52z m149 -237 c0 -11 -4 -20 -8 -20 -5 0 -4 -9 2 -19 7 -14
7 -22 0 -26 -6 -4 -8 -16 -5 -28 5 -20 5 -20 -6 -4 -20 33 -22 77 -3 98 21 23
20 23 20 -1z m-698 -63 c12 -18 22 -39 22 -46 0 -7 3 -10 8 -8 4 3 58 -61 121
-142 l113 -146 -143 -3 c-92 -2 -145 1 -147 8 -2 5 -11 10 -20 11 -10 0 -12 3
-5 6 10 3 9 12 -3 35 -8 16 -13 36 -10 44 3 9 1 12 -4 9 -6 -3 -10 -1 -10 5 0
6 -3 9 -8 6 -10 -6 -9 65 1 81 4 6 3 14 -3 18 -5 3 -10 12 -10 18 0 7 4 6 10
-3 10 -15 12 -7 13 57 1 12 5 19 11 16 5 -4 7 1 3 10 -4 10 -2 17 4 17 6 0 9
6 6 14 -3 8 -3 17 0 20 13 13 29 4 51 -27z m642 -2 c0 -8 4 -15 10 -15 5 0 6
-7 3 -17 -5 -12 -3 -14 8 -8 12 8 12 6 0 -8 -9 -12 -10 -17 -2 -17 7 0 9 -5 5
-12 -10 -15 -9 -82 1 -98 5 -8 4 -11 -3 -6 -6 4 -19 -22 -33 -69 -12 -41 -27
-80 -34 -85 -8 -7 -65 -9 -145 -8 l-132 3 78 90 c43 50 89 101 101 115 13 14
47 53 76 87 54 64 67 73 67 48z m42 -239 c7 -13 7 -16 -1 -12 -7 5 -10 -5 -10
-26 3 -71 -6 -84 -37 -54 -20 20 -17 28 6 21 12 -4 20 -2 20 5 0 6 -5 8 -10 5
-6 -4 -10 5 -8 24 1 17 6 31 10 31 4 0 8 12 9 28 0 15 3 21 6 12 3 -8 10 -23
15 -34z m-777 -36 c-3 -6 1 -10 10 -10 9 0 13 -4 10 -10 -3 -5 -2 -10 2 -10 5
0 9 -9 10 -21 1 -15 -3 -19 -19 -17 -12 2 -23 9 -26 17 -3 9 0 11 9 5 12 -7
12 -5 0 9 -7 9 -11 24 -7 32 3 8 1 15 -4 15 -5 0 -7 7 -3 16 5 15 7 15 15 0 5
-9 6 -21 3 -26z m769 -117 c4 -9 3 -19 -1 -22 -4 -3 -9 -14 -11 -25 -2 -12 1
-16 10 -11 7 3 6 0 -4 -7 -12 -11 -14 -18 -6 -32 8 -15 8 -17 -2 -11 -10 6
-12 2 -8 -13 4 -14 2 -20 -5 -15 -6 4 -8 -2 -5 -15 4 -12 2 -20 -3 -16 -9 5
-13 -9 -10 -35 2 -7 -2 -10 -8 -6 -6 3 -11 1 -11 -4 0 -20 -3 -26 -19 -39 -13
-11 -13 -12 -1 -7 8 4 3 -3 -13 -15 -15 -12 -24 -27 -20 -33 4 -7 0 -8 -11 -4
-13 5 -17 3 -13 -7 4 -10 0 -12 -15 -8 -13 3 -19 1 -15 -5 3 -5 1 -10 -6 -10
-21 -1 -80 -14 -89 -19 -4 -3 -8 0 -8 7 0 9 -3 9 -14 0 -17 -15 -28 -1 -15 19
5 8 9 11 9 7 0 -4 6 -2 14 5 8 7 12 16 10 20 -2 4 5 9 16 13 16 5 19 12 15 28
-4 15 -3 18 3 9 6 -9 19 3 47 45 21 32 38 63 38 70 0 7 3 10 6 8 4 -2 17 14
29 36 12 21 18 39 13 39 -6 0 1 12 14 26 14 15 22 30 19 35 -3 5 10 9 29 9 23
0 37 -6 41 -17z m-803 -260 c13 -16 12 -17 -3 -4 -10 7 -18 15 -18 17 0 8 8 3
21 -13z m439 -117 c0 -2 -7 -7 -16 -10 -8 -3 -12 -2 -9 4 6 10 25 14 25 6z"/>
<path d="M1530 1798 c0 -4 4 -8 9 -8 6 0 12 4 15 8 3 5 -1 9 -9 9 -8 0 -15 -4
-15 -9z"/>
<path d="M1466 1737 c3 -10 9 -15 12 -12 3 3 0 11 -7 18 -10 9 -11 8 -5 -6z"/>
<path d="M1436 1698 c3 -5 10 -6 15 -3 13 9 11 12 -6 12 -8 0 -12 -4 -9 -9z"/>
<path d="M1398 1663 c7 -3 16 -2 19 1 4 3 -2 6 -13 5 -11 0 -14 -3 -6 -6z"/>
<path d="M1372 1651 c2 -5 -5 -16 -16 -24 -14 -10 -15 -14 -4 -14 20 0 41 34
28 42 -6 4 -9 2 -8 -4z"/>
<path d="M1315 1580 c3 -5 8 -10 11 -10 2 0 4 5 4 10 0 6 -5 10 -11 10 -5 0
-7 -4 -4 -10z"/>
<path d="M1250 1501 c0 -6 4 -13 10 -16 6 -3 7 1 4 9 -7 18 -14 21 -14 7z"/>
<path d="M1221 1444 c0 -11 3 -14 6 -6 3 7 2 16 -1 19 -3 4 -6 -2 -5 -13z"/>
<path d="M1195 1420 c-3 -5 -1 -10 4 -10 6 0 11 5 11 10 0 6 -2 10 -4 10 -3 0
-8 -4 -11 -10z"/>
<path d="M1170 1380 c0 -5 5 -10 11 -10 5 0 7 5 4 10 -3 6 -8 10 -11 10 -2 0
-4 -4 -4 -10z"/>
<path d="M1077 1209 c7 -7 15 -10 18 -7 3 3 -2 9 -12 12 -14 6 -15 5 -6 -5z"/>
<path d="M770 2120 c0 -5 5 -10 10 -10 6 0 10 5 10 10 0 6 -4 10 -10 10 -5 0
-10 -4 -10 -10z"/>
<path d="M1980 2119 c0 -5 5 -7 10 -4 6 3 10 8 10 11 0 2 -4 4 -10 4 -5 0 -10
-5 -10 -11z"/>
<path d="M1993 2085 c0 -8 4 -12 9 -9 4 3 8 9 8 15 0 5 -4 9 -8 9 -5 0 -9 -7
-9 -15z"/>
<path d="M755 2060 c-3 -5 -1 -10 4 -10 6 0 11 5 11 10 0 6 -2 10 -4 10 -3 0
-8 -4 -11 -10z"/>
<path d="M2019 2023 c0 -5 -2 -16 -4 -26 -2 -11 -1 -16 3 -13 8 8 14 46 7 46
-3 0 -5 -3 -6 -7z"/>
<path d="M2034 1972 c3 -5 0 -13 -6 -15 -9 -4 -10 -6 -1 -6 17 -1 25 16 12 25
-7 4 -9 3 -5 -4z"/>
<path d="M730 1961 c0 -6 4 -12 8 -15 5 -3 9 1 9 9 0 8 -4 15 -9 15 -4 0 -8
-4 -8 -9z"/>
<path d="M1815 1960 c-3 -5 -1 -10 4 -10 6 0 11 5 11 10 0 6 -2 10 -4 10 -3 0
-8 -4 -11 -10z"/>
<path d="M1900 1966 c0 -2 7 -6 15 -10 8 -3 15 -1 15 4 0 6 -7 10 -15 10 -8 0
-15 -2 -15 -4z"/>
<path d="M1946 1958 c4 -5 12 -7 19 -4 8 3 16 1 19 -5 2 -5 3 -4 2 2 -1 7 -12
13 -24 14 -11 1 -19 -2 -16 -7z"/>
<path d="M1776 1947 c-16 -12 -16 -13 2 -13 10 0 19 6 19 13 0 7 -1 13 -2 13
-1 0 -9 -6 -19 -13z"/>
<path d="M1740 1931 c0 -7 -5 -9 -12 -5 -7 5 -8 3 -3 -5 5 -9 10 -10 18 -2 6
6 8 14 4 18 -4 3 -7 1 -7 -6z"/>
<path d="M2010 1929 c0 -5 7 -12 15 -15 8 -4 12 -10 9 -15 -3 -6 -1 -16 5 -23
6 -7 9 -22 6 -34 -3 -16 0 -19 12 -15 12 5 14 3 7 -8 -11 -18 -13 -60 -2 -53
4 3 8 12 8 20 0 9 5 12 12 8 7 -5 8 -3 2 7 -9 15 -9 16 -19 64 -3 16 -11 35
-16 42 -6 7 -8 16 -6 20 3 5 -3 10 -14 10 -10 1 -19 -3 -19 -8z"/>
<path d="M1696 1912 c-3 -5 1 -9 9 -9 8 0 12 4 9 9 -3 4 -7 8 -9 8 -2 0 -6 -4
-9 -8z"/>
<path d="M734 1895 c-3 -8 -4 -20 -2 -27 3 -7 7 -1 10 15 6 29 1 36 -8 12z"/>
<path d="M710 1759 c0 -5 5 -7 10 -4 6 3 10 8 10 11 0 2 -4 4 -10 4 -5 0 -10
-5 -10 -11z"/>
<path d="M2066 1755 c-11 -9 -15 -18 -10 -27 11 -17 14 -38 6 -38 -4 0 -7 -14
-8 -30 -1 -17 3 -30 8 -30 4 0 3 -9 -4 -20 -13 -20 -6 -36 11 -26 6 4 8 24 6
46 -2 22 -1 40 4 40 9 0 8 30 -2 46 -3 6 -3 14 0 18 6 6 14 37 10 36 -1 0 -10
-7 -21 -15z"/>
<path d="M700 1651 c0 -6 4 -13 10 -16 6 -3 7 1 4 9 -7 18 -14 21 -14 7z"/>
<path d="M700 1605 c0 -8 4 -15 10 -15 5 0 7 7 4 15 -4 8 -8 15 -10 15 -2 0
-4 -7 -4 -15z"/>
<path d="M2047 1563 c7 -2 9 -11 6 -19 -8 -20 4 -17 16 4 8 15 5 18 -12 19
-12 0 -17 -1 -10 -4z"/>
<path d="M710 1550 c0 -5 5 -10 11 -10 5 0 7 5 4 10 -3 6 -8 10 -11 10 -2 0
-4 -4 -4 -10z"/>
<path d="M2030 1531 c0 -6 4 -13 10 -16 6 -3 7 1 4 9 -7 18 -14 21 -14 7z"/>
<path d="M700 1506 c0 -2 7 -7 16 -10 8 -3 12 -2 9 4 -6 10 -25 14 -25 6z"/>
<path d="M2020 1500 c0 -5 5 -10 11 -10 5 0 7 5 4 10 -3 6 -8 10 -11 10 -2 0
-4 -4 -4 -10z"/>
<path d="M2012 1467 c-8 -9 -8 -17 0 -27 8 -13 9 -12 5 1 -3 9 0 22 6 28 6 6
8 11 5 11 -3 0 -10 -6 -16 -13z"/>
<path d="M2065 1460 c-8 -13 -16 -54 -9 -47 3 3 6 9 6 14 0 4 4 16 9 26 10 18
5 24 -6 7z"/>
<path d="M1994 1412 c3 -5 0 -13 -6 -15 -9 -4 -10 -6 -1 -6 17 -1 25 16 12 25
-7 4 -9 3 -5 -4z"/>
<path d="M1970 1369 c0 -5 5 -7 10 -4 6 3 10 8 10 11 0 2 -4 4 -10 4 -5 0 -10
-5 -10 -11z"/>
<path d="M721 1354 c0 -11 3 -14 6 -6 3 7 2 16 -1 19 -3 4 -6 -2 -5 -13z"/>
<path d="M2057 1355 c-4 -8 -3 -16 1 -19 4 -3 9 4 9 15 2 23 -3 25 -10 4z"/>
<path d="M1951 1330 c-13 -11 -19 -20 -14 -20 6 0 18 9 28 20 23 25 17 25 -14
0z"/>
<path d="M2047 1319 c7 -7 15 -10 18 -7 3 3 -2 9 -12 12 -14 6 -15 5 -6 -5z"/>
<path d="M729 1304 c5 -3 7 -17 5 -32 -3 -19 -2 -23 5 -13 12 18 7 44 -8 47
-6 1 -7 0 -2 -2z"/>
<path d="M1915 1260 c3 -5 8 -10 11 -10 2 0 4 5 4 10 0 6 -5 10 -11 10 -5 0
-7 -4 -4 -10z"/>
<path d="M2035 1260 c-3 -5 -1 -10 4 -10 6 0 11 5 11 10 0 6 -2 10 -4 10 -3 0
-8 -4 -11 -10z"/>
<path d="M1895 1240 c-3 -5 -1 -10 4 -10 6 0 11 5 11 10 0 6 -2 10 -4 10 -3 0
-8 -4 -11 -10z"/>
<path d="M2025 1200 c-3 -6 1 -7 9 -4 18 7 21 14 7 14 -6 0 -13 -4 -16 -10z"/>
<path d="M754 1166 c0 -13 4 -22 8 -20 3 2 8 1 11 -3 2 -5 2 -1 -1 7 -2 8 -5
21 -5 28 0 6 -4 12 -8 12 -4 0 -6 -11 -5 -24z"/>
<path d="M1870 1179 c0 -5 5 -7 10 -4 6 3 10 8 10 11 0 2 -4 4 -10 4 -5 0 -10
-5 -10 -11z"/>
<path d="M1847 1155 c-4 -8 -3 -16 1 -19 4 -3 9 4 9 15 2 23 -3 25 -10 4z"/>
<path d="M2010 1161 c0 -6 4 -13 10 -16 6 -3 7 1 4 9 -7 18 -14 21 -14 7z"/>
<path d="M2007 1113 c3 -7 6 -13 8 -13 2 0 5 6 8 13 3 8 -1 14 -8 14 -7 0 -11
-6 -8 -14z"/>
<path d="M773 1101 c0 -11 5 -18 9 -15 4 3 5 11 1 19 -7 21 -12 19 -10 -4z"/>
<path d="M1999 1083 c0 -5 -2 -16 -4 -26 -2 -11 -1 -16 3 -13 8 8 14 46 7 46
-3 0 -5 -3 -6 -7z"/>
<path d="M783 1053 c0 -11 7 -20 14 -20 10 0 10 4 1 16 -7 9 -13 18 -15 20 -1
2 -1 -5 0 -16z"/>
<path d="M1975 1020 c-3 -5 -1 -10 4 -10 6 0 11 5 11 10 0 6 -2 10 -4 10 -3 0
-8 -4 -11 -10z"/>
<path d="M797 1009 c7 -7 15 -10 18 -7 3 3 -2 9 -12 12 -14 6 -15 5 -6 -5z"/>
<path d="M1975 991 c-3 -5 -2 -12 3 -15 5 -3 9 1 9 9 0 17 -3 19 -12 6z"/>
<path d="M813 975 c0 -8 4 -12 9 -9 4 3 8 9 8 15 0 5 -4 9 -8 9 -5 0 -9 -7 -9
-15z"/>
<path d="M1957 955 c-4 -8 -3 -16 1 -19 4 -3 9 4 9 15 2 23 -3 25 -10 4z"/>
<path d="M825 949 c-4 -6 -5 -12 -2 -15 2 -3 7 2 10 11 7 17 1 20 -8 4z"/>
<path d="M836 913 c-6 -14 -5 -15 5 -6 7 7 10 15 7 18 -3 3 -9 -2 -12 -12z"/>
<path d="M1941 914 c0 -11 3 -14 6 -6 3 7 2 16 -1 19 -3 4 -6 -2 -5 -13z"/>
<path d="M851 884 c0 -11 3 -14 6 -6 3 7 2 16 -1 19 -3 4 -6 -2 -5 -13z"/>
<path d="M958 863 c7 -3 16 -2 19 1 4 3 -2 6 -13 5 -11 0 -14 -3 -6 -6z"/>
<path d="M1595 850 c-3 -5 -1 -10 4 -10 6 0 11 5 11 10 0 6 -2 10 -4 10 -3 0
-8 -4 -11 -10z"/>
<path d="M1918 843 c7 -3 16 -2 19 1 4 3 -2 6 -13 5 -11 0 -14 -3 -6 -6z"/>
<path d="M1575 820 c3 -5 8 -10 11 -10 2 0 4 5 4 10 0 6 -5 10 -11 10 -5 0 -7
-4 -4 -10z"/>
<path d="M1897 809 c7 -7 15 -10 18 -7 3 3 -2 9 -12 12 -14 6 -15 5 -6 -5z"/>
<path d="M1880 791 c0 -6 4 -13 10 -16 6 -3 7 1 4 9 -7 18 -14 21 -14 7z"/>
<path d="M913 771 c0 -11 5 -18 9 -15 4 3 5 11 1 19 -7 21 -12 19 -10 -4z"/>
<path d="M1516 775 c-9 -26 -7 -32 5 -12 6 10 9 21 6 23 -2 3 -7 -2 -11 -11z"/>
<path d="M957 759 c7 -7 15 -10 18 -7 3 3 -2 9 -12 12 -14 6 -15 5 -6 -5z"/>
<path d="M1486 742 c-3 -5 1 -9 9 -9 8 0 12 4 9 9 -3 4 -7 8 -9 8 -2 0 -6 -4
-9 -8z"/>
<path d="M1853 743 c4 -3 2 -12 -4 -20 -9 -9 -8 -13 0 -13 6 0 11 2 11 4 0 2
3 11 6 20 4 10 1 16 -7 16 -7 0 -9 -3 -6 -7z"/>
<path d="M1451 713 c0 -11 3 -13 6 -5 2 6 10 9 15 6 7 -4 8 -2 4 4 -11 18 -26
14 -25 -5z"/>
<path d="M1405 680 c3 -5 8 -10 11 -10 2 0 4 5 4 10 0 6 -5 10 -11 10 -5 0 -7
-4 -4 -10z"/>
<path d="M1790 645 c-7 -9 -8 -15 -2 -15 5 0 12 7 16 15 3 8 4 15 2 15 -2 0
-9 -7 -16 -15z"/>
<path d="M1295 620 c-3 -5 -2 -10 4 -10 5 0 13 5 16 10 3 6 2 10 -4 10 -5 0
-13 -4 -16 -10z"/>
<path d="M1765 610 c-3 -6 1 -7 9 -4 18 7 21 14 7 14 -6 0 -13 -4 -16 -10z"/>
<path d="M1237 603 c-10 -9 -9 -23 1 -23 5 0 9 7 9 15 0 17 -1 18 -10 8z"/>
<path d="M1205 590 c-3 -5 -12 -7 -20 -3 -8 3 -15 3 -15 0 0 -13 30 -14 40 -1
7 8 10 14 7 14 -3 0 -8 -4 -12 -10z"/>
<path d="M1140 576 c0 -2 7 -7 16 -10 8 -3 12 -2 9 4 -6 10 -25 14 -25 6z"/>
<path d="M1055 560 c3 -5 8 -10 11 -10 2 0 4 5 4 10 0 6 -5 10 -11 10 -5 0 -7
-4 -4 -10z"/>
<path d="M1705 561 c-3 -5 -2 -12 3 -15 5 -3 9 1 9 9 0 17 -3 19 -12 6z"/>
<path d="M1675 529 c-4 -6 -4 -13 -1 -16 3 -4 6 -1 6 6 0 7 5 9 12 5 7 -4 8
-3 4 4 -9 15 -13 15 -21 1z"/>
<path d="M1130 500 c0 -5 5 -10 11 -10 5 0 7 5 4 10 -3 6 -8 10 -11 10 -2 0
-4 -4 -4 -10z"/>
<path d="M1166 478 c3 -5 10 -6 15 -3 13 9 11 12 -6 12 -8 0 -12 -4 -9 -9z"/>
<path d="M1595 481 c-3 -5 -2 -12 3 -15 5 -3 9 1 9 9 0 17 -3 19 -12 6z"/>
<path d="M1210 471 c0 -7 -5 -9 -12 -5 -7 5 -8 3 -3 -5 5 -9 10 -10 18 -2 6 6
8 14 4 18 -4 3 -7 1 -7 -6z"/>
<path d="M1567 459 c7 -7 15 -10 18 -7 3 3 -2 9 -12 12 -14 6 -15 5 -6 -5z"/>
<path d="M1235 448 c-5 -7 -5 -10 0 -6 4 4 13 4 19 -2 7 -5 17 -5 26 2 13 8
12 9 -1 5 -9 -3 -21 -1 -27 5 -6 6 -12 5 -17 -4z"/>
<path d="M1519 433 c-12 -16 -12 -17 2 -6 9 7 19 10 22 6 4 -3 7 -1 7 5 0 17
-16 15 -31 -5z"/>
<path d="M1465 430 c-4 -6 -10 -8 -15 -5 -5 3 -11 1 -14 -4 -8 -13 22 -7 36 7
7 7 9 12 6 12 -4 0 -10 -5 -13 -10z"/>
<path d="M1370 422 c0 -4 11 -8 25 -8 28 0 24 8 -5 13 -11 2 -20 -1 -20 -5z"/>
<path d="M970 305 l0 -35 420 0 420 0 0 35 0 35 -420 0 -420 0 0 -35z"/>
<path d="M1090 185 l0 -35 305 0 305 0 0 35 0 35 -305 0 -305 0 0 -35z"/>
<path d="M1240 65 l0 -35 150 0 150 0 0 35 0 35 -150 0 -150 0 0 -35z"/>
</g>
</svg>
